<mxfile host="app.diagrams.net" agent="Mozilla/5.0 (Windows NT 10.0; Win64; x64) AppleWebKit/537.36 (KHTML, like Gecko) Chrome/132.0.0.0 Whale/4.30.291.11 Safari/537.36" version="26.0.15">
  <diagram name="페이지-1" id="6FfF_yDWQZVdrMLre3Ca">
    <mxGraphModel dx="772" dy="310" grid="1" gridSize="10" guides="1" tooltips="1" connect="1" arrows="1" fold="1" page="1" pageScale="1" pageWidth="827" pageHeight="1169" math="0" shadow="0">
      <root>
        <mxCell id="0" />
        <mxCell id="1" parent="0" />
        <mxCell id="tdTR2wnVNg5lihEf9ouf-2" value="" style="rounded=1;whiteSpace=wrap;html=1;" vertex="1" parent="1">
          <mxGeometry x="22" y="49.5" width="80" height="177.5" as="geometry" />
        </mxCell>
        <mxCell id="tdTR2wnVNg5lihEf9ouf-3" value="" style="verticalLabelPosition=bottom;verticalAlign=top;html=1;shape=mxgraph.basic.rect;fillColor2=none;strokeWidth=1;size=20;indent=5;movable=1;resizable=1;rotatable=1;deletable=1;editable=1;locked=0;connectable=1;" vertex="1" parent="1">
          <mxGeometry x="414" y="27.5" width="350" height="162.5" as="geometry" />
        </mxCell>
        <mxCell id="tdTR2wnVNg5lihEf9ouf-4" value="" style="verticalLabelPosition=bottom;verticalAlign=top;html=1;shape=mxgraph.basic.rect;fillColor2=none;strokeWidth=1;size=20;indent=5;movable=1;resizable=1;rotatable=1;deletable=1;editable=1;locked=0;connectable=1;" vertex="1" parent="1">
          <mxGeometry x="120" y="27.5" width="270" height="335" as="geometry" />
        </mxCell>
        <mxCell id="tdTR2wnVNg5lihEf9ouf-5" value="" style="image;aspect=fixed;perimeter=ellipsePerimeter;html=1;align=center;shadow=0;dashed=0;spacingTop=3;image=img/lib/active_directory/laptop_client.svg;" vertex="1" parent="1">
          <mxGeometry x="41.93" y="65" width="36" height="40" as="geometry" />
        </mxCell>
        <mxCell id="tdTR2wnVNg5lihEf9ouf-6" value="" style="image;aspect=fixed;perimeter=ellipsePerimeter;html=1;align=center;shadow=0;dashed=0;spacingTop=3;image=img/lib/active_directory/modem.svg;" vertex="1" parent="1">
          <mxGeometry x="41.93" y="125" width="36.14" height="30" as="geometry" />
        </mxCell>
        <mxCell id="tdTR2wnVNg5lihEf9ouf-7" style="edgeStyle=orthogonalEdgeStyle;rounded=0;orthogonalLoop=1;jettySize=auto;html=1;entryX=0;entryY=0.5;entryDx=0;entryDy=0;strokeColor=light-dark(#808080,#FFFFFF);" edge="1" parent="1" source="tdTR2wnVNg5lihEf9ouf-8" target="tdTR2wnVNg5lihEf9ouf-16">
          <mxGeometry relative="1" as="geometry" />
        </mxCell>
        <mxCell id="tdTR2wnVNg5lihEf9ouf-8" value="" style="image;aspect=fixed;perimeter=ellipsePerimeter;html=1;align=center;shadow=0;dashed=0;spacingTop=3;image=img/lib/active_directory/laptop_client.svg;" vertex="1" parent="1">
          <mxGeometry x="146.5" y="42.5" width="45" height="50" as="geometry" />
        </mxCell>
        <mxCell id="tdTR2wnVNg5lihEf9ouf-9" style="edgeStyle=orthogonalEdgeStyle;rounded=0;orthogonalLoop=1;jettySize=auto;html=1;entryX=0;entryY=0.5;entryDx=0;entryDy=0;" edge="1" parent="1" source="tdTR2wnVNg5lihEf9ouf-10" target="tdTR2wnVNg5lihEf9ouf-16">
          <mxGeometry relative="1" as="geometry" />
        </mxCell>
        <mxCell id="tdTR2wnVNg5lihEf9ouf-10" value="" style="image;aspect=fixed;perimeter=ellipsePerimeter;html=1;align=center;shadow=0;dashed=0;spacingTop=3;image=img/lib/active_directory/laptop_client.svg;" vertex="1" parent="1">
          <mxGeometry x="146.5" y="132.5" width="45" height="50" as="geometry" />
        </mxCell>
        <mxCell id="tdTR2wnVNg5lihEf9ouf-11" style="edgeStyle=orthogonalEdgeStyle;rounded=0;orthogonalLoop=1;jettySize=auto;html=1;entryX=0;entryY=0.5;entryDx=0;entryDy=0;strokeColor=light-dark(#808080,#FFFFFF);" edge="1" parent="1" source="tdTR2wnVNg5lihEf9ouf-12" target="tdTR2wnVNg5lihEf9ouf-16">
          <mxGeometry relative="1" as="geometry" />
        </mxCell>
        <mxCell id="tdTR2wnVNg5lihEf9ouf-12" value="" style="image;aspect=fixed;perimeter=ellipsePerimeter;html=1;align=center;shadow=0;dashed=0;spacingTop=3;image=img/lib/active_directory/laptop_client.svg;" vertex="1" parent="1">
          <mxGeometry x="146.5" y="222.5" width="45" height="50" as="geometry" />
        </mxCell>
        <mxCell id="tdTR2wnVNg5lihEf9ouf-13" value="&lt;font style=&quot;font-size: 10px;&quot;&gt;Client A&lt;/font&gt;" style="text;html=1;align=center;verticalAlign=middle;whiteSpace=wrap;rounded=0;" vertex="1" parent="1">
          <mxGeometry x="140" y="87.5" width="60" height="30" as="geometry" />
        </mxCell>
        <mxCell id="tdTR2wnVNg5lihEf9ouf-14" value="&lt;font style=&quot;font-size: 10px;&quot;&gt;Client B&lt;/font&gt;" style="text;html=1;align=center;verticalAlign=middle;whiteSpace=wrap;rounded=0;" vertex="1" parent="1">
          <mxGeometry x="140" y="175.5" width="60" height="30" as="geometry" />
        </mxCell>
        <mxCell id="tdTR2wnVNg5lihEf9ouf-15" value="&lt;font style=&quot;font-size: 10px;&quot;&gt;Client C&lt;/font&gt;" style="text;html=1;align=center;verticalAlign=middle;whiteSpace=wrap;rounded=0;" vertex="1" parent="1">
          <mxGeometry x="140" y="265.5" width="60" height="30" as="geometry" />
        </mxCell>
        <mxCell id="tdTR2wnVNg5lihEf9ouf-16" value="" style="image;aspect=fixed;perimeter=ellipsePerimeter;html=1;align=center;shadow=0;dashed=0;spacingTop=3;image=img/lib/active_directory/databases.svg;" vertex="1" parent="1">
          <mxGeometry x="316.5" y="133.5" width="50" height="49" as="geometry" />
        </mxCell>
        <mxCell id="tdTR2wnVNg5lihEf9ouf-17" value="&lt;font style=&quot;font-size: 10px;&quot;&gt;DataBase&lt;/font&gt;" style="text;html=1;align=center;verticalAlign=middle;whiteSpace=wrap;rounded=0;" vertex="1" parent="1">
          <mxGeometry x="311.5" y="175.5" width="60" height="30" as="geometry" />
        </mxCell>
        <mxCell id="tdTR2wnVNg5lihEf9ouf-18" value="&lt;b&gt;&lt;font style=&quot;font-size: 14px;&quot;&gt;2-Tier&lt;/font&gt;&lt;/b&gt;" style="text;html=1;align=center;verticalAlign=middle;whiteSpace=wrap;rounded=0;" vertex="1" parent="1">
          <mxGeometry x="225" y="312.5" width="60" height="30" as="geometry" />
        </mxCell>
        <mxCell id="tdTR2wnVNg5lihEf9ouf-19" value="&lt;font style=&quot;font-size: 10px;&quot;&gt;Client&lt;/font&gt;" style="text;html=1;align=center;verticalAlign=middle;whiteSpace=wrap;rounded=0;" vertex="1" parent="1">
          <mxGeometry x="424" y="97" width="60" height="30" as="geometry" />
        </mxCell>
        <mxCell id="tdTR2wnVNg5lihEf9ouf-20" style="edgeStyle=orthogonalEdgeStyle;rounded=0;orthogonalLoop=1;jettySize=auto;html=1;entryX=0;entryY=0.5;entryDx=0;entryDy=0;strokeColor=light-dark(#808080,#FFFFFF);" edge="1" parent="1" source="tdTR2wnVNg5lihEf9ouf-21" target="tdTR2wnVNg5lihEf9ouf-27">
          <mxGeometry relative="1" as="geometry" />
        </mxCell>
        <mxCell id="tdTR2wnVNg5lihEf9ouf-21" value="" style="image;aspect=fixed;perimeter=ellipsePerimeter;html=1;align=center;shadow=0;dashed=0;spacingTop=3;image=img/lib/active_directory/laptop_client.svg;" vertex="1" parent="1">
          <mxGeometry x="430.5" y="48" width="45" height="50" as="geometry" />
        </mxCell>
        <mxCell id="tdTR2wnVNg5lihEf9ouf-22" value="+" style="text;html=1;align=center;verticalAlign=middle;whiteSpace=wrap;rounded=0;" vertex="1" parent="1">
          <mxGeometry x="51.74999999999999" y="105" width="16.5" height="20" as="geometry" />
        </mxCell>
        <mxCell id="tdTR2wnVNg5lihEf9ouf-23" value="&lt;b&gt;&lt;font style=&quot;font-size: 14px;&quot;&gt;1-Tier&lt;/font&gt;&lt;/b&gt;" style="text;html=1;align=center;verticalAlign=middle;whiteSpace=wrap;rounded=0;" vertex="1" parent="1">
          <mxGeometry x="30" y="180" width="60" height="30" as="geometry" />
        </mxCell>
        <mxCell id="tdTR2wnVNg5lihEf9ouf-24" value="" style="image;aspect=fixed;perimeter=ellipsePerimeter;html=1;align=center;shadow=0;dashed=0;spacingTop=3;image=img/lib/active_directory/databases.svg;" vertex="1" parent="1">
          <mxGeometry x="699" y="48" width="50" height="49" as="geometry" />
        </mxCell>
        <mxCell id="tdTR2wnVNg5lihEf9ouf-25" value="&lt;font style=&quot;font-size: 10px;&quot;&gt;DataBase&lt;/font&gt;" style="text;html=1;align=center;verticalAlign=middle;whiteSpace=wrap;rounded=0;" vertex="1" parent="1">
          <mxGeometry x="694" y="95" width="60" height="30" as="geometry" />
        </mxCell>
        <mxCell id="tdTR2wnVNg5lihEf9ouf-26" style="edgeStyle=orthogonalEdgeStyle;rounded=0;orthogonalLoop=1;jettySize=auto;html=1;entryX=0;entryY=0.5;entryDx=0;entryDy=0;strokeColor=light-dark(#808080,#FFFFFF);" edge="1" parent="1" source="tdTR2wnVNg5lihEf9ouf-27" target="tdTR2wnVNg5lihEf9ouf-24">
          <mxGeometry relative="1" as="geometry" />
        </mxCell>
        <mxCell id="tdTR2wnVNg5lihEf9ouf-27" value="" style="image;aspect=fixed;perimeter=ellipsePerimeter;html=1;align=center;shadow=0;dashed=0;spacingTop=3;image=img/lib/active_directory/generic_server.svg;" vertex="1" parent="1">
          <mxGeometry x="574" y="48" width="28.000000000000004" height="50" as="geometry" />
        </mxCell>
        <mxCell id="tdTR2wnVNg5lihEf9ouf-28" value="&lt;div&gt;&lt;span style=&quot;font-size: 10px;&quot;&gt;Application&lt;/span&gt;&lt;/div&gt;&lt;span style=&quot;font-size: 10px;&quot;&gt;Server&lt;/span&gt;" style="text;html=1;align=center;verticalAlign=middle;whiteSpace=wrap;rounded=0;" vertex="1" parent="1">
          <mxGeometry x="557" y="103" width="60" height="30" as="geometry" />
        </mxCell>
        <mxCell id="tdTR2wnVNg5lihEf9ouf-29" value="&lt;b&gt;&lt;font style=&quot;font-size: 14px;&quot;&gt;3-Tier&lt;/font&gt;&lt;/b&gt;" style="text;html=1;align=center;verticalAlign=middle;whiteSpace=wrap;rounded=0;" vertex="1" parent="1">
          <mxGeometry x="559" y="150.5" width="60" height="30" as="geometry" />
        </mxCell>
        <mxCell id="tdTR2wnVNg5lihEf9ouf-30" value="" style="verticalLabelPosition=bottom;verticalAlign=top;html=1;shape=mxgraph.basic.rect;fillColor2=none;strokeWidth=1;size=20;indent=5;movable=1;resizable=1;rotatable=1;deletable=1;editable=1;locked=0;connectable=1;" vertex="1" parent="1">
          <mxGeometry x="414" y="210" width="396" height="160" as="geometry" />
        </mxCell>
        <mxCell id="tdTR2wnVNg5lihEf9ouf-31" value="&lt;font style=&quot;font-size: 10px;&quot;&gt;Client&lt;/font&gt;" style="text;html=1;align=center;verticalAlign=middle;whiteSpace=wrap;rounded=0;" vertex="1" parent="1">
          <mxGeometry x="424" y="279.5" width="60" height="30" as="geometry" />
        </mxCell>
        <mxCell id="tdTR2wnVNg5lihEf9ouf-32" style="edgeStyle=orthogonalEdgeStyle;rounded=0;orthogonalLoop=1;jettySize=auto;html=1;entryX=0;entryY=0.5;entryDx=0;entryDy=0;strokeColor=light-dark(#808080,#FFFFFF);" edge="1" parent="1" source="tdTR2wnVNg5lihEf9ouf-33" target="tdTR2wnVNg5lihEf9ouf-41">
          <mxGeometry relative="1" as="geometry" />
        </mxCell>
        <mxCell id="tdTR2wnVNg5lihEf9ouf-33" value="" style="image;aspect=fixed;perimeter=ellipsePerimeter;html=1;align=center;shadow=0;dashed=0;spacingTop=3;image=img/lib/active_directory/laptop_client.svg;" vertex="1" parent="1">
          <mxGeometry x="430.5" y="230.5" width="45" height="50" as="geometry" />
        </mxCell>
        <mxCell id="tdTR2wnVNg5lihEf9ouf-34" value="" style="image;aspect=fixed;perimeter=ellipsePerimeter;html=1;align=center;shadow=0;dashed=0;spacingTop=3;image=img/lib/active_directory/databases.svg;" vertex="1" parent="1">
          <mxGeometry x="735" y="230.5" width="50" height="49" as="geometry" />
        </mxCell>
        <mxCell id="tdTR2wnVNg5lihEf9ouf-35" value="&lt;font style=&quot;font-size: 10px;&quot;&gt;DataBase&lt;/font&gt;" style="text;html=1;align=center;verticalAlign=middle;whiteSpace=wrap;rounded=0;" vertex="1" parent="1">
          <mxGeometry x="730" y="277.5" width="60" height="30" as="geometry" />
        </mxCell>
        <mxCell id="tdTR2wnVNg5lihEf9ouf-36" style="edgeStyle=orthogonalEdgeStyle;rounded=0;orthogonalLoop=1;jettySize=auto;html=1;entryX=0;entryY=0.5;entryDx=0;entryDy=0;strokeColor=light-dark(#808080,#FFFFFF);" edge="1" parent="1" source="tdTR2wnVNg5lihEf9ouf-37" target="tdTR2wnVNg5lihEf9ouf-34">
          <mxGeometry relative="1" as="geometry" />
        </mxCell>
        <mxCell id="tdTR2wnVNg5lihEf9ouf-37" value="" style="image;aspect=fixed;perimeter=ellipsePerimeter;html=1;align=center;shadow=0;dashed=0;spacingTop=3;image=img/lib/active_directory/generic_server.svg;" vertex="1" parent="1">
          <mxGeometry x="641" y="230.5" width="28.000000000000004" height="50" as="geometry" />
        </mxCell>
        <mxCell id="tdTR2wnVNg5lihEf9ouf-38" value="&lt;div&gt;&lt;span style=&quot;font-size: 10px;&quot;&gt;Application&lt;/span&gt;&lt;/div&gt;&lt;span style=&quot;font-size: 10px;&quot;&gt;Server&lt;/span&gt;" style="text;html=1;align=center;verticalAlign=middle;whiteSpace=wrap;rounded=0;" vertex="1" parent="1">
          <mxGeometry x="625" y="288.5" width="60" height="30" as="geometry" />
        </mxCell>
        <mxCell id="tdTR2wnVNg5lihEf9ouf-39" value="&lt;b&gt;&lt;font style=&quot;font-size: 14px;&quot;&gt;4-Tier&lt;/font&gt;&lt;/b&gt;" style="text;html=1;align=center;verticalAlign=middle;whiteSpace=wrap;rounded=0;" vertex="1" parent="1">
          <mxGeometry x="582" y="329" width="60" height="30" as="geometry" />
        </mxCell>
        <mxCell id="tdTR2wnVNg5lihEf9ouf-40" style="edgeStyle=orthogonalEdgeStyle;rounded=0;orthogonalLoop=1;jettySize=auto;html=1;entryX=0;entryY=0.5;entryDx=0;entryDy=0;strokeColor=light-dark(#808080,#FFFFFF);" edge="1" parent="1" source="tdTR2wnVNg5lihEf9ouf-41" target="tdTR2wnVNg5lihEf9ouf-37">
          <mxGeometry relative="1" as="geometry" />
        </mxCell>
        <mxCell id="tdTR2wnVNg5lihEf9ouf-41" value="" style="image;aspect=fixed;perimeter=ellipsePerimeter;html=1;align=center;shadow=0;dashed=0;spacingTop=3;image=img/lib/active_directory/web_server.svg;" vertex="1" parent="1">
          <mxGeometry x="536" y="230.5" width="40" height="50" as="geometry" />
        </mxCell>
        <mxCell id="tdTR2wnVNg5lihEf9ouf-42" value="&lt;div&gt;&lt;span style=&quot;font-size: 10px;&quot;&gt;Web&lt;/span&gt;&lt;/div&gt;&lt;span style=&quot;font-size: 10px;&quot;&gt;Server&lt;/span&gt;" style="text;html=1;align=center;verticalAlign=middle;whiteSpace=wrap;rounded=0;" vertex="1" parent="1">
          <mxGeometry x="518" y="288" width="60" height="30" as="geometry" />
        </mxCell>
      </root>
    </mxGraphModel>
  </diagram>
</mxfile>
